<mxfile host="app.diagrams.net" modified="2024-05-12T22:07:09.454Z" agent="Mozilla/5.0 (X11; Linux x86_64) AppleWebKit/537.36 (KHTML, like Gecko) Chrome/124.0.0.0 Safari/537.36" version="24.4.0" etag="Fcnx6pyMhPqCT4uAY0lz" type="github">
  <diagram name="Page-1" id="FY6yOpg0n6NwoYVB4uBZ">
    <mxGraphModel>
      <root>
        <mxCell id="0" />
        <mxCell id="1" parent="0" />
      </root>
    </mxGraphModel>
  </diagram>
</mxfile>
